<?xml version="1.0" encoding="utf-8"?>
<!-- Generator: Adobe Illustrator 24.3.0, SVG Export Plug-In . SVG Version: 6.00 Build 0)  -->
<svg version="1.1" id="Layer_1" xmlns="http://www.w3.org/2000/svg" xmlns:xlink="http://www.w3.org/1999/xlink" x="0px" y="0px"
	 viewBox="0 0 1000 1000" style="enable-background:new 0 0 1000 1000;" xml:space="preserve">
<style type="text/css">
	.st0{fill:url(#SVGID_1_);}
	.st1{fill:#040001;}
	.st2{fill:#0F0000;}
	.st3{fill:url(#SVGID_2_);}
	.st4{fill:#161515;}
	.st5{fill:#6FFFF8;}
	.st6{fill:#6FFFFA;}
	.st7{fill:#FFFFFF;}
	.st8{fill:#DB7A41;}
	.st9{fill:none;stroke:#FFFFFF;stroke-miterlimit:10;}
	.st10{fill:#F1F0E5;}
	.st11{fill:none;stroke:#F1F0E5;stroke-miterlimit:10;}
	.st12{fill:#0A0000;}
	.st13{fill:#EDF0E8;}
	.st14{fill:#EDECE3;}
	.st15{fill:#040101;}
	.st16{fill:#8AF2E2;}
	.st17{fill:#080404;}
	.st18{fill:#FFFFFF;stroke:#231F20;stroke-miterlimit:10;}
</style>
<g>
	<g>
		<linearGradient id="SVGID_1_" gradientUnits="userSpaceOnUse" x1="500" y1="672.9761" x2="500" y2="321.1768">
			<stop  offset="0.1825" style="stop-color:#FEECD9"/>
			<stop  offset="1" style="stop-color:#EBEEE6"/>
		</linearGradient>
		<circle class="st0" cx="500" cy="500" r="239.82"/>
		<g>
			<g>
				<g>
					<path class="st1" d="M667.09,583.46c0,0-3.18-24.85-23.98-37.27c0,0-7.51-10.98-23.4-15.89c0,0-6.64-6.36-22.25-6.93v-11.56
						c0,0,0.29-15.6-15.89-15.6h-19.65v-5.06c0-5.66-4.59-10.26-10.26-10.26h-14.59v-8.67h5.2v-9.24h8.96c3.83,0,6.93-3.1,6.93-6.93
						v-4.33h21.96c0,0,5.2-0.29,7.22-9.53c0,0,9.24,15.89,25.42,17.91c16.18,2.02,26.87-17.05,17.62-31.49
						c-9.24-14.45-27.45-7.22-30.34,0.29c0,0-8.96-4.04-12.42-9.24v-64.14c0,0-0.87-6.36-13-10.69
						c-12.13-4.33-42.47-11.56-42.47-11.56v-15.31c0,0-2.6-6.64-22.82-6.64h-28.02l-10.98,4.91v21.96c0,0-26,2.31-35.25,4.33
						c-9.24,2.02-11.27,10.98-11.27,21.38s0,71.94,0,71.94s-1.16,15.02,14.45,15.02h19.65c0,0-0.58,17.05,12.42,17.05v13.58h-14.88
						c-5.66,0-10.26,4.59-10.26,10.26v3.61H422.1c0,0-11.27,1.73-11.27,17.33v26.29c0,0-8.67-4.91-17.91-6.07
						c0,0-2.02-12.42-11.27-16.76l-1.16-7.51c0,0,21.67-4.04,24.85-26.87c3.18-22.82-7.8-34.09-7.8-34.09V394.8
						c0-10.69-8.67-19.36-19.36-19.36h0c-10.69,0-19.36,8.67-19.36,19.36v29.76c0,0-4.04-4.04-22.82-3.18l-8.38,10.11
						c0,0-21.67-2.02-25.71,17.91c-1.87,9.22,2.19,15.72,7.09,20.04c0,0-7.96,5.38-6.52,18.09c1.44,12.71,21.09,23.11,21.09,23.11
						s1.16,23.11,20.22,48.25c19.07,25.13,48.54,28.6,65.87,26v79.16l91.64,12.74l86.9-11.3h46.51v-4.04c0,0,22.53-7.8,23.4-21.96
						c0,0,10.69-11.56,9.53-29.47C667.67,610.03,672.29,596.46,667.09,583.46z M605.77,624.84c0,0-5.63,2.17-8.23,11.27
						c0,0,0.65-58.5,0.43-58.29c0,0,16.9,4.55,19.72,16.03S609.67,611.41,605.77,624.84z"/>
					<g>
						<g>
							<g>
								<path class="st2" d="M418.32,655.41V518.02c0-5.83,4.74-10.57,10.57-10.57h68.37l-1.06,157.4L418.32,655.41z"/>
								<linearGradient id="SVGID_2_" gradientUnits="userSpaceOnUse" x1="457.778" y1="491.5839" x2="457.778" y2="618.1239">
									<stop  offset="0" style="stop-color:#6FFFFA"/>
									<stop  offset="1" style="stop-color:#DB7A41"/>
								</linearGradient>
								<path class="st3" d="M493.02,661.24l-71.5-8.67V518.02c0-4.07,3.3-7.37,7.37-7.37h65.15L493.02,661.24z"/>
							</g>
							<path class="st4" d="M504.44,503.72v159.76l83.78-10.11V512.84c0-5.19-4.22-9.39-9.41-9.38L504.44,503.72z"/>
						</g>
						<g>
							<path class="st5" d="M449.33,497h60.45v-6.5h43.77v7.37h5.2v-4.98c0-4.55-3.69-8.23-8.23-8.23h-92.95
								c-4.55,0-8.23,3.69-8.23,8.24C449.33,495.31,449.33,497.26,449.33,497z"/>
							<g>
								<path class="st5" d="M476.2,473.6v6.72l46.37-1.46c0.97-0.03,1.74-0.82,1.74-1.79l0,0c0-0.97-0.75-1.76-1.71-1.79
									C514.04,474.96,476.39,473.6,476.2,473.6z"/>
								<path class="st5" d="M476.2,465.37v6.72l56.55-1.46c0.97-0.03,1.74-0.82,1.74-1.79l0,0c0-0.97-0.75-1.76-1.71-1.79
									C524.23,466.73,476.39,465.37,476.2,465.37z"/>
								<path class="st5" d="M465.58,457.35v1.24c0,3.01,2.47,5.43,5.47,5.37l67.54-1.35c0.97-0.03,1.74-0.82,1.74-1.79l0,0
									c0-0.97-0.75-1.76-1.71-1.79C530.08,458.71,465.77,457.35,465.58,457.35z"/>
							</g>
							<g>
								<g>
									<polygon class="st6" points="483.06,336.15 483.06,314.49 474.1,319.11 474.1,338.46 									"/>
									<polygon class="st6" points="485.37,335.86 485.37,314.77 501.55,314.77 501.55,333.84 									"/>
								</g>
								<g>
									<path class="st4" d="M506.17,441.75V338.75h12.42c0,0,53.16,13.29,56.34,14.45c3.18,1.16,5.49,2.6,4.33,22.82l-0.58,56.91
										c0,0,2.02,9.03-8.67,9.89C559.33,443.7,506.17,441.75,506.17,441.75z"/>
									<path class="st1" d="M441.78,443.08c-4.65,0-8.44-3.79-8.44-8.44V359.7c0-4.13,2.95-7.61,7.03-8.29l59.44-10.2
										c0,0-0.03,63.2,0.17,97.27l0.02,3.14L441.78,443.08z"/>
									<path class="st6" d="M496.56,345.33l-55.67,9.24c-2.51,0.42-4.35,2.59-4.35,5.13v74.94c0,2.95,2.43,5.31,5.37,5.24
										l54.86-1.38C496.78,438.5,496.24,345,496.56,345.33z"/>
								</g>
								<path class="st4" d="M503.93,333.41h21.23v-8.02c0-4.31-3.49-7.8-7.8-7.8h-13.22C504.15,317.59,503.5,333.84,503.93,333.41z
									"/>
							</g>
						</g>
						<g>
							<g>
								<g>
									<g>
										<path class="st7" d="M395.59,445.5l-4.98-5.06v-39.29c0,0-1.95-14.23-17.77-11.41c0,0,5.2,1.95,5.2,6.28s0,36.19,0,36.19
											s21.45,10.62,24.27,36.4s-16.68,34.02-16.68,34.02l2.17-5.2c0,0,17.98-18.42,5.85-39.87s-31.64-27.73-31.64-27.73v-31.96
											c0-9.27,7.52-16.79,16.79-16.79h0c9.27,0,16.79,7.52,16.79,16.79V445.5z"/>
										<path class="st7" d="M331.67,433.73l6.72-8.02c0,0,14.3,0,14.3,0c2.77,0,8.08,4.62,10.35,6.3
											c3.49,2.58,6.74,5.5,9.66,8.72c5.74,6.34,10.21,13.85,12.73,22.04c4.94,16.07,1.72,34.22-8.22,47.76
											c-6.6,8.99-14.43,14.32-25.31,16.87c-6.49,1.52-16.78-0.26-21.21-6.48c-0.62-0.87-0.57-2.06,0.13-2.87l0,0
											c0.84-0.97,2.33-1.08,3.27-0.2c2.37,2.22,7.69,5.54,17.52,4.06c16.01-2.43,27.63-17.17,30.69-31.94
											c2.94-14.14-2.05-30.56-9.98-42.36c-3.37-5.02-7.91-9.73-13.31-12.82c-2.75-1.57-5.93-2.99-9.08-3.45
											c-2.79-0.41-6.11,0.56-8.73-0.7c9.63,4.59,18.69,10.78,25.21,19.21c10.94,14.16,12.31,34.93,2.34,50.07
											c-8.03,12.19-22.76,16.27-36.43,13.47c-2.02-0.41-3.47-2.21-3.45-4.28l0,0c11.19,1.89,25.95,1.22,33.8-8.23
											c10.62-12.78,11.61-37.4-4.12-52.87C345.54,435.25,331.67,433.73,331.67,433.73z"/>
										<path class="st7" d="M334.36,532.57l-0.05,0.1c-0.44,0.88-0.3,1.94,0.35,2.68c2.44,2.75,9.13,8.74,19.76,6.72
											c13.65-2.6,24.05-15.6,24.05-15.6s4.98,4.55,2.38,9.97c-2.6,5.42-11.05,15.17-22.1,15.17c-11.05,0-15.82-6.93-15.82-6.93
											l0,0c-1.38,1.93-1.27,4.54,0.28,6.33c3.29,3.79,8.8,8.73,17.48,6.67c17.33-4.12,24.92-19.07,26.43-24.48
											c1.52-5.42-9.1-15.17-9.1-15.17s-7.37,14.3-21.88,17.77c-9.44,2.25-15.12-1.17-17.94-3.84
											C337.02,530.82,335.1,531.1,334.36,532.57z"/>
									</g>
									<path class="st7" d="M355.29,561.57c0,0,8.88,3.47,15.6,0.43c6.72-3.03,12.35-8.67,12.35-8.67s-4.98,15.17-14.52,16.9
										S355.29,561.57,355.29,561.57z"/>
									<path class="st7" d="M370.67,571.97l8.02,5.63c0,0,18.63-11.27,16.9-36.84c0,0,11.48,2.17,10.4,12.35
										c-1.08,10.18-10.4,22.32-19.5,25.13l9.1,2.17c0,0,17.77-15.6,16.25-32.07c0,0-5.63-13.22-22.97-12.78
										c0,0,4.33,14.95-2.17,25.13C380.21,570.89,370.67,571.97,370.67,571.97z"/>
								</g>
								<path class="st8" d="M356.52,481.47c0.51,2.63,0.17,5.4-0.76,7.97c-0.91,2.59-2.52,5.01-4.67,6.84
									c-2.15,1.79-4.69,3.2-7.39,3.69c-1.31,0.41-2.7,0.34-4.02,0.47c-1.34-0.05-2.67-0.22-3.96-0.47c1.26-0.5,2.5-0.79,3.7-1.19
									l1.76-0.66c0.59-0.19,1.16-0.39,1.7-0.69c2.25-0.92,4.19-2.26,5.97-3.73C352.41,490.69,354.71,486.41,356.52,481.47z"/>
							</g>
							<g>
								<path class="st6" d="M325.6,436.98c0,0-19.36-0.29-19.36,14.16c0,14.45,14.45,14.16,14.45,14.16l19.65-0.58
									c0,0,9.82-2.89,9.82-12.71s-9.68-14.73-14.3-14.73S328.06,436.84,325.6,436.98z"/>
								<path class="st6" d="M326.25,466.67c0,0-19.36-0.29-19.36,14.16c0,14.45,14.45,14.16,14.45,14.16l19.65-0.58
									c0,0,9.82-2.89,9.82-12.71s-9.68-14.73-14.3-14.73S328.71,466.52,326.25,466.67z"/>
							</g>
						</g>
					</g>
					<g>
						<g>
							<path class="st7" d="M596.78,574.87l2.01-3.58c13.06-23.3-3.09-40.78-3.78-41.51c-0.87-0.92-0.83-2.36,0.08-3.23
								c0.91-0.87,2.36-0.84,3.23,0.08c0.18,0.19,17.26,18.51,6.51,42.81c5.29-1.37,13.77-5.4,14.04-17.23
								c0.39-17.35-14.26-21.98-14.41-22.03c-1.21-0.37-1.89-1.64-1.53-2.85c0.37-1.21,1.64-1.9,2.85-1.53
								c0.18,0.05,18.13,5.73,17.66,26.51c-0.38,16.95-14.92,22.05-22.55,22.38L596.78,574.87z"/>
						</g>
						<g>
							<path class="st7" d="M613.6,580.71c-2.22,0-3.72-0.15-3.96-0.18c-1.26-0.14-2.16-1.27-2.02-2.52
								c0.14-1.26,1.29-2.16,2.52-2.03c0.22,0.02,21.72,2.17,24.97-11.82c3.38-14.54-8.53-24.45-9.04-24.86
								c-0.98-0.8-1.13-2.24-0.33-3.22c0.8-0.98,2.23-1.13,3.21-0.34c0.6,0.49,14.65,12.08,10.61,29.45
								C636.36,579,620.99,580.71,613.6,580.71z"/>
						</g>
						<g>
							<path class="st7" d="M630.34,591.04c-3.32,0-6.93-0.44-10.84-1.3c-1.23-0.27-2.01-1.5-1.74-2.73
								c0.27-1.23,1.49-2.01,2.73-1.74c14.45,3.21,23.75-0.01,29.28-10.13c5.88-10.79-4.69-18.98-5.15-19.32
								c-1.01-0.76-1.21-2.19-0.45-3.2c0.76-1.01,2.19-1.21,3.2-0.45c4.94,3.71,12.65,13.74,6.41,25.17
								C648.78,586.5,641.06,591.04,630.34,591.04z"/>
						</g>
						<g>
							<path class="st7" d="M640.32,604.69c-12.56,0-20.02-6.48-20.4-6.81c-0.94-0.84-1.03-2.28-0.19-3.23
								c0.84-0.94,2.28-1.03,3.23-0.19c0.39,0.34,9.81,8.39,25.4,4.68c4.58-1.09,7.83-3.2,9.66-6.28
								c2.93-4.94,1.39-10.77,1.37-10.83c-0.33-1.22,0.39-2.48,1.6-2.81c1.21-0.33,2.47,0.39,2.81,1.6
								c0.09,0.31,2.06,7.78-1.85,14.37c-2.48,4.18-6.7,7.01-12.54,8.39C646.15,604.37,643.11,604.69,640.32,604.69z"/>
						</g>
						<g>
							<path class="st7" d="M643.68,618.73c-11.79,0-18.94-3.54-23.64-11.59c-0.64-1.09-0.27-2.49,0.82-3.13
								c1.09-0.64,2.49-0.27,3.13,0.82c3.02,5.17,7.8,9.88,22.2,9.27c12.19-0.51,17.25-14.24,17.3-14.38
								c0.43-1.19,1.74-1.81,2.92-1.38c1.19,0.43,1.81,1.74,1.38,2.92c-0.25,0.68-6.18,16.77-21.42,17.4
								C645.46,618.71,644.56,618.73,643.68,618.73z"/>
						</g>
						<g>
							<path class="st7" d="M642.24,633.12c-19.72,0-28.02-17.34-28.37-18.08c-0.53-1.14-0.04-2.5,1.11-3.04
								c1.14-0.53,2.5-0.04,3.04,1.1l0,0c0.3,0.63,7.46,15.44,24.22,15.44c16.26,0,18.78-8.6,18.87-8.97
								c0.33-1.21,1.57-1.94,2.78-1.63c1.21,0.31,1.95,1.53,1.66,2.74C665.43,621.2,662.3,633.12,642.24,633.12z"/>
						</g>
						<g>
							<path class="st7" d="M639.17,649.43c-4.33,0-9.3-0.88-14.45-3.56c-14.9-7.76-15.37-23.28-15.39-23.94
								c-0.02-1.26,0.98-2.31,2.24-2.33c1.2-0.01,2.3,0.97,2.33,2.24l0,0c0.01,0.55,0.49,13.5,12.93,19.98
								c12.56,6.54,23.96,0.57,24.43,0.3c1.11-0.6,2.5-0.19,3.1,0.92c0.6,1.11,0.19,2.49-0.91,3.1
								C653.08,646.33,647.27,649.43,639.17,649.43z"/>
						</g>
						<g>
							<path class="st7" d="M620.86,659.13c-0.28,0-0.56-0.05-0.84-0.16c-18.83-7.41-19.35-23.64-19.36-24.33
								c-0.02-1.26,0.98-2.31,2.24-2.33c1.29,0,2.3,0.98,2.33,2.23c0.02,0.58,0.57,13.92,16.46,20.17c1.17,0.46,1.75,1.79,1.29,2.97
								C622.64,658.57,621.78,659.13,620.86,659.13z"/>
						</g>
					</g>
					<g>
						<path class="st10" d="M615.23,455.94c-2.21,0-4.29-0.43-6.13-1.27c-4.49-2.06-7.59-6.57-8.29-12.06
							c-0.71-5.54,1.17-10.73,5.03-13.88c2.21-1.8,4.97-2.96,8.01-3.35c2.69-0.35,5.32-0.04,7.61,0.89
							c4.93,2.01,7.86,7.05,7.49,12.83c-0.23,3.54-2.04,8.29-6.37,10.01c-0.05,0.02-0.1,0.04-0.15,0.06l2.73,3.41
							c-2.06,1.65-4.41,2.7-6.99,3.12C617.16,455.86,616.18,455.94,615.23,455.94z M615.98,429.8c-0.51,0-1.03,0.03-1.55,0.1
							c-2.18,0.28-4.15,1.1-5.69,2.36c-2.59,2.12-3.89,5.85-3.39,9.76c0.5,3.91,2.62,7.08,5.66,8.48c1.8,0.83,4.02,1.06,6.41,0.67
							c1.6-0.26,3.04-0.85,4.36-1.79c-4.14,1.35-8.29,0.46-10.99-2.4c-2.76-2.93-3.45-7.5-1.68-11.11c0.92-1.87,2.62-3.3,4.67-3.92
							c2-0.6,4.05-0.37,5.78,0.64c2.17,1.27,4.09,4.1,3.37,6.85c-0.36,1.4-1.4,2.57-2.78,3.12c-1.37,0.55-2.85,0.44-4.07-0.3
							c-0.82-0.5-1.24-1.29-1.58-1.93c-0.07-0.13-0.14-0.27-0.21-0.37c0,0.01,0.26,0.37,0.83,0.56l1.42-4.27
							c-0.6-0.13-1.13-0.03-1.45,0.07c-0.82,0.25-1.53,0.83-1.88,1.55c-0.92,1.88-0.53,4.44,0.91,5.97c1.86,1.98,4.71,1.81,6.76,1
							c2.2-0.87,3.34-3.67,3.49-6.05c0.2-3.01-0.92-6.78-4.65-8.3C618.59,430.04,617.32,429.8,615.98,429.8z M617.35,436.61
							c0.51,0.39,0.83,0.92,1.07,1.37C618.3,437.56,617.89,436.96,617.35,436.61z"/>
					</g>
					<g>
						<g>
							<path class="st10" d="M444.09,447.08c-5.74-0.44-9.85-2.2-12.33-5.21c-2.83-3.43-2.43-7.2-2.41-7.36l-0.01-76.98
								c0.51-7.93,7.9-10.63,11.74-10.96l61.43-10.34c0.14-0.07,0.3-0.07,0.49-0.07l0.1,1.16l1.03,0.16
								c-0.22,2.16-0.46,70.76-0.56,106.72l0,1.11L444.09,447.08z M501.88,338.66l-60.52,10.18c-0.46,0.04-9.23,0.92-9.74,8.77
								l0,77.03c-0.01,0.15-0.29,3.15,1.93,5.81c2.08,2.5,5.64,3.96,10.6,4.35l57.13-1.7c0.01-5.3,0.08-28.82,0.18-52.34
								c0.05-13.36,0.12-26.73,0.19-36.75C501.69,345.42,501.72,340.97,501.88,338.66z"/>
						</g>
						<g>
							<path class="st10" d="M568.5,448.09c-11.81,0-65.6-2.72-66.15-2.75l0.12-2.28c0.54,0.03,54.28,2.74,66.03,2.74
								c10.82,0,12.46-9.47,12.52-9.87c-0.01-0.48,0.84-64.26-0.01-75.35c-0.78-10.14-15.69-11.29-15.84-11.3l-54.51-12.75
								l-7.38,1.88l-0.57-2.22l7.93-2.02l54.87,12.85c0.51,0.02,16.85,1.26,17.78,13.38c0.86,11.19,0.04,73.09,0,75.72
								C583.26,436.41,581.25,448.09,568.5,448.09z"/>
						</g>
					</g>
					<polyline class="st11" points="550.95,459.52 550.95,451.43 462.26,451.43 					"/>
					<g>
						<g>
							<path class="st10" d="M500.18,499.42h-2.65l-68.39,0.41c-12.14,0.14-16.15,9.86-16.56,15.14v143.75l84.95,9.9l2.65,0.3
								l2.49-0.27V499.4L500.18,499.42z M498.1,664.1l-0.57-0.07l-80.37-9.38V515.16c0.02-0.43,0.96-10.64,12.03-10.75l68.34-0.41
								h0.57V664.1z"/>
						</g>
						<g>
							<path class="st10" d="M592.51,514.79c-0.41-5.1-4.39-14.82-16.56-14.96l-73.28-0.41h-2.49l-2.65-0.02v169.23l2.65,0.3
								l2.49-0.27l89.86-9.9L592.51,514.79z M587.96,654.65l-85.29,9.38l-0.57,0.07V504h0.57l73.23,0.41
								c10.8,0.11,11.96,9.67,12.05,10.57V654.65z"/>
						</g>
					</g>
				</g>
				<g>
					<g>
						<circle class="st12" cx="466.12" cy="381.8" r="7.62"/>
						<circle class="st13" cx="464.86" cy="381.8" r="6.36"/>
					</g>
					<g>
						<circle class="st12" cx="466.12" cy="402.28" r="7.62"/>
						<circle class="st13" cx="464.86" cy="402.28" r="6.36"/>
					</g>
				</g>
				<g>
					<g>
						<path class="st14" d="M531.45,416.43c-11.21,0-20.33-10.48-20.33-23.37c0-12.88,9.12-23.37,20.33-23.37
							c11.21,0,20.33,10.48,20.33,23.37C551.78,405.95,542.66,416.43,531.45,416.43z M531.45,376.56c-7.43,0-13.47,7.4-13.47,16.5
							c0,9.1,6.04,16.5,13.47,16.5c7.43,0,13.47-7.4,13.47-16.5C544.92,383.97,538.88,376.56,531.45,376.56z"/>
					</g>
					<circle class="st14" cx="539.1" cy="431.49" r="5.49"/>
					<circle class="st14" cx="552.68" cy="430.63" r="5.49"/>
					<circle class="st14" cx="567.42" cy="417.91" r="5.49"/>
					<circle class="st14" cx="568.28" cy="396.82" r="5.49"/>
					<circle class="st14" cx="565.68" cy="369.67" r="5.49"/>
				</g>
			</g>
			<g>
				<g>
					<g>
						<path class="st14" d="M561.93,559.16c-4.13,0-7.49-3.36-7.49-7.49s3.36-7.49,7.49-7.49s7.49,3.36,7.49,7.49
							S566.06,559.16,561.93,559.16z M561.93,548.76c-1.61,0-2.91,1.31-2.91,2.91c0,1.61,1.31,2.91,2.91,2.91
							c1.61,0,2.91-1.31,2.91-2.91C564.84,550.07,563.53,548.76,561.93,548.76z"/>
					</g>
					<g>
						<path class="st14" d="M524.95,557.14c-4.13,0-7.49-3.36-7.49-7.49s3.36-7.49,7.49-7.49s7.49,3.36,7.49,7.49
							S529.08,557.14,524.95,557.14z M524.95,546.74c-1.61,0-2.91,1.31-2.91,2.91c0,1.61,1.31,2.91,2.91,2.91
							c1.61,0,2.91-1.31,2.91-2.91C527.86,548.05,526.55,546.74,524.95,546.74z"/>
					</g>
					<circle class="st14" cx="524.37" cy="604.26" r="5.2"/>
					<circle class="st14" cx="558.75" cy="604.26" r="5.2"/>
					<circle class="st14" cx="558.17" cy="629.68" r="5.2"/>
				</g>
				<g>
					<path class="st15" d="M455.61,538.1c0,0,18.49,5.78,15.6,26.58s-18.49,19.36-18.49,19.36v-3.76c0,0,14.16-2.31,13.87-19.07
						c-0.29-16.76-15.6-24.85-30.62-18.78c-15.02,6.07-13.58,40.16,10.4,41.02v7.22h10.82c14.62,0,26.79-11.62,27.02-26.24
						c0-0.21,0-0.42,0-0.63C484.21,542.72,464.57,538.39,455.61,538.1z"/>
					<ellipse class="st16" cx="444.63" cy="561.93" rx="14.73" ry="16.5"/>
					<g>
						<path class="st17" d="M450.56,536.94c-2.81,0-5.24-1.31-6.49-3.51c-2.05-3.59-0.36-8.43,3.78-10.79
							c1.47-0.84,3.1-1.28,4.72-1.28c2.81,0,5.24,1.31,6.49,3.52c1.01,1.77,1.15,3.88,0.4,5.95c-0.73,2-2.21,3.72-4.18,4.84
							C453.82,536.49,452.19,536.94,450.56,536.94z M452.32,526.36c-0.68,0-1.38,0.19-2.02,0.56c-0.84,0.48-1.48,1.21-1.78,2.02
							c-0.15,0.4-0.33,1.18,0.08,1.9c0.39,0.68,1.22,1.09,2.21,1.09l0,0c0.68,0,1.38-0.19,2.02-0.56c1.61-0.92,2.38-2.71,1.69-3.92
							C454.14,526.77,453.31,526.36,452.32,526.36z"/>
						<path class="st14" d="M445.06,532.85c-1.74-3.04-0.23-7.19,3.35-9.23c3.59-2.05,7.92-1.24,9.65,1.81
							c1.74,3.04,0.23,7.18-3.35,9.23S446.8,535.9,445.06,532.85z M454.1,527.7c-0.68-1.18-2.36-1.5-3.76-0.7
							c-1.4,0.8-1.98,2.41-1.3,3.59c0.68,1.18,2.36,1.5,3.76,0.7C454.19,530.49,454.77,528.88,454.1,527.7z"/>
					</g>
					<g>
						<circle class="st18" cx="466.37" cy="620.4" r="5.96"/>
						<circle class="st18" cx="441.45" cy="617.37" r="5.96"/>
					</g>
				</g>
			</g>
		</g>
	</g>
</g>
</svg>
